<svg height="512" viewBox="0 0 128 128" width="512" xmlns="http://www.w3.org/2000/svg"><g><g><path d="m67 37.631h-6c0-7.418 0-22.856 10.8-31.131l5.762 6.131c-8.449 6.475-10.562 18.543-10.562 25z" fill="#f4a86c"/><path d="m28 52.333c0 21.871-.271 51.162 27.313 63 3.347 1.436 4.808 2.553 8.687 6.172 3.879-3.619 5.34-4.736 8.687-6.172 27.584-11.833 27.313-41.133 27.313-63z" fill="#f4a86c"/><path d="m24.192 54.917c0-18.25 19.308-24.584 39.808-24.584s39.808 6.334 39.808 24.584z" fill="#d38854"/></g><g fill="#220401"><path d="m30.384 84.141a1.749 1.749 0 0 0 1.361-2.067q-.311-1.507-.559-3.031a1.75 1.75 0 0 0 -3.454.566q.261 1.593.585 3.171a1.75 1.75 0 0 0 1.712 1.4 1.727 1.727 0 0 0 .355-.039z"/><path d="m84.913 98.463a1.748 1.748 0 0 0 2.423-.5 41.3 41.3 0 0 0 3.957-7.8 1.75 1.75 0 1 0 -3.266-1.263 37.848 37.848 0 0 1 -3.619 7.14 1.748 1.748 0 0 0 .505 2.423z"/><path d="m69.883 28.76c1.076-4.381 3.486-10.713 8.747-14.74a1.758 1.758 0 0 0 .67-1.25 1.78 1.78 0 0 0 -.46-1.34l-5.76-6.13a1.763 1.763 0 0 0 -2.34-.19 24.786 24.786 0 0 0 -5.6 6.03 1.746 1.746 0 1 0 2.91 1.93 21.917 21.917 0 0 1 3.6-4.17l3.37 3.58c-5.316 4.859-7.67 11.63-8.7 16.13-.764-.017-1.536-.027-2.32-.027-.3 0-.588.008-.883.011a41.166 41.166 0 0 1 2.023-9.564 1.752 1.752 0 1 0 -3.31-1.15 45.4 45.4 0 0 0 -2.246 10.8c-23.673 1.029-37.142 10.459-37.142 26.237a1.751 1.751 0 0 0 1.75 1.75h2.067c.021 5.215.109 10.708.631 16.323a1.756 1.756 0 0 0 1.74 1.59.97.97 0 0 0 .17-.01 1.748 1.748 0 0 0 1.58-1.9c-.512-5.471-.6-10.87-.621-16h51.574a1.75 1.75 0 0 0 0-3.5h-55.324c1.467-18.989 26.881-21.087 37.991-21.087s36.524 2.1 37.991 21.084h-12.991a1.75 1.75 0 0 0 0 3.5h9.247c-.042 18.9-.831 46.144-26.247 57.053a24.108 24.108 0 0 0 -8 5.4 24.108 24.108 0 0 0 -8-5.4c-11.53-4.95-19-13.46-22.83-26.02a1.751 1.751 0 0 0 -3.35 1.02c4.15 13.61 12.26 22.84 24.8 28.22 3.02 1.29 4.24 2.16 8.19 5.84a1.741 1.741 0 0 0 2.38 0c3.95-3.68 5.17-4.55 8.19-5.84 27.5-11.809 28.325-40.441 28.367-60.273h2.061a1.751 1.751 0 0 0 1.75-1.75c0-15.448-12.916-24.808-35.675-26.157z"/></g></g></svg>