<?xml version="1.0" encoding="iso-8859-1"?>
<!-- Generator: Adobe Illustrator 19.0.0, SVG Export Plug-In . SVG Version: 6.00 Build 0)  -->
<svg version="1.1" id="Capa_1" xmlns="http://www.w3.org/2000/svg" xmlns:xlink="http://www.w3.org/1999/xlink" x="0px" y="0px"
	 viewBox="0 0 453.11 453.11" style="enable-background:new 0 0 453.11 453.11;" xml:space="preserve">
<g>
	<circle style="fill:#FFFFFF;" cx="181.956" cy="133.71" r="23.28"/>
	<circle style="fill:#FFFFFF;" cx="181.956" cy="133.71" r="15.28"/>
</g>
<path style="fill:#F9B310;" d="M173.556,227.63c-27.6,0-44.08-16.48-44.08-44.08v-64c0-27.6,16.48-44.08,44.08-44.08h105.84
	c27.6,0,44.08,16.48,44.08,44.08v64c0,27.6-16.48,44.08-44.08,44.08H173.556z M271.076,110.35c-12.857,0-23.28,10.423-23.28,23.28
	s10.423,23.28,23.28,23.28s23.28-10.423,23.28-23.28l0,0C294.312,120.791,283.915,110.394,271.076,110.35z M181.956,110.35
	c-12.857,0-23.28,10.423-23.28,23.28s10.423,23.28,23.28,23.28s23.28-10.423,23.28-23.28l0,0
	C205.192,120.791,194.795,110.394,181.956,110.35z"/>
<circle style="fill:#FFFFFF;" cx="138.596" cy="411.55" r="13.36"/>
<g>
	<path style="fill:#F9B310;" d="M119.156,180.03c-18.778-5.677-29.398-25.502-23.72-44.28c3.44-11.378,12.343-20.28,23.72-23.72
		l10.32-3.12v74.32L119.156,180.03z"/>
	<path style="fill:#F9B310;" d="M323.556,108.91l10.32,3.12c18.778,5.677,29.398,25.502,23.72,44.28
		c-3.44,11.378-12.343,20.28-23.72,23.72l-10.32,3.12V108.91z"/>
</g>
<g>
	<circle style="fill:#FFFFFF;" cx="271.076" cy="133.71" r="23.28"/>
	<circle style="fill:#FFFFFF;" cx="271.076" cy="133.71" r="15.28"/>
</g>
<g>
	<circle style="fill:#F9B310;" cx="226.516" cy="26.51" r="18.08"/>
	<path style="fill:#F9B310;" d="M129.876,250.91l-0.48,126.08h185.68h8V251.63L129.876,250.91z"/>
	<path style="fill:#F9B310;" d="M121.076,445.39c-18.711,0.909-34.617-13.522-35.527-32.233
		c-0.909-18.711,13.522-34.617,32.233-35.527c1.097-0.053,2.196-0.053,3.293,0h210.88c18.711-0.909,34.617,13.522,35.527,32.233
		c0.909,18.711-13.522,34.617-32.233,35.527c-1.097,0.053-2.196,0.053-3.293,0H121.076z M314.516,398.19
		c-7.379,0-13.36,5.981-13.36,13.36s5.981,13.36,13.36,13.36c7.379,0,13.36-5.981,13.36-13.36v0
		C327.876,404.171,321.895,398.19,314.516,398.19z M226.516,398.19c-7.379,0-13.36,5.981-13.36,13.36
		c0,7.379,5.981,13.36,13.36,13.36c7.379,0,13.36-5.981,13.36-13.36v0C239.876,404.171,233.895,398.19,226.516,398.19
		L226.516,398.19z M138.516,398.19c-7.379,0-13.36,5.981-13.36,13.36c0,7.379,5.981,13.36,13.36,13.36s13.36-5.981,13.36-13.36l0,0
		C151.876,404.171,145.895,398.19,138.516,398.19z"/>
</g>
<g>
	<circle style="fill:#FFFFFF;" cx="314.436" cy="411.55" r="13.36"/>
	<circle style="fill:#FFFFFF;" cx="226.516" cy="411.55" r="13.36"/>
</g>
<g>
	<path style="fill:#58171D;" d="M181.956,164.99c17.275,0,31.28-14.005,31.28-31.28s-14.005-31.28-31.28-31.28
		s-31.28,14.005-31.28,31.28l0,0C150.72,150.967,164.699,164.946,181.956,164.99z M181.956,118.35c8.439,0,15.28,6.841,15.28,15.28
		c0,8.439-6.841,15.28-15.28,15.28c-8.439,0-15.28-6.841-15.28-15.28l0,0C166.676,125.191,173.517,118.35,181.956,118.35z"/>
	<path style="fill:#58171D;" d="M271.076,164.99c17.275,0,31.28-14.005,31.28-31.28s-14.005-31.28-31.28-31.28
		c-17.275,0-31.28,14.005-31.28,31.28l0,0C239.84,150.967,253.819,164.946,271.076,164.99z M271.076,118.35
		c8.439,0,15.28,6.841,15.28,15.28c0,8.439-6.841,15.28-15.28,15.28s-15.28-6.841-15.28-15.28l0,0
		C255.796,125.191,262.637,118.35,271.076,118.35z"/>
	<path style="fill:#58171D;" d="M121.716,188.99c2.48,34.24,27.92,46.64,51.84,46.64h105.84c35.68,0,50-23.2,51.84-46.64
		c23.707-4.218,39.507-26.856,35.289-50.563c-3.332-18.73-18.424-33.137-37.289-35.597c-5.2-19.04-20.08-35.2-49.84-35.2h-44.88
		V50.91c13.709-4.418,21.241-19.114,16.823-32.823S232.225-3.154,218.516,1.264s-21.241,19.113-16.823,32.823
		c2.574,7.988,8.835,14.248,16.823,16.823v16h-44.96c-21.04,0-43.28,9.68-50,35.2c-23.871,3.164-40.657,25.08-37.493,48.951
		c2.499,18.851,16.926,33.908,35.653,37.209L121.716,188.99z M331.556,119.71c14.558,4.366,22.82,19.708,18.454,34.266
		c-2.658,8.863-9.592,15.796-18.454,18.454V119.71z M216.356,26.91c-0.221-5.563,4.11-10.251,9.672-10.472
		c5.563-0.221,10.251,4.11,10.472,9.672s-4.11,10.251-9.672,10.472c-0.104,0.004-0.208,0.007-0.312,0.008
		C221.087,36.596,216.612,32.333,216.356,26.91z M137.476,119.71c0-31.44,22.64-36.08,36.08-36.08h105.84
		c31.44,0,36.08,22.64,36.08,36.08v64c0,13.52-4.72,36.08-36.08,36.08h-105.84c-13.52,0-36.08-4.72-36.08-36.08L137.476,119.71z
		 M121.476,119.71v52.72c-14.558-4.366-22.82-19.708-18.454-34.266C105.68,129.301,112.613,122.368,121.476,119.71z"/>
	<path style="fill:#58171D;" d="M271.076,185.79h-89.12c-4.418,0-8,3.582-8,8s3.582,8,8,8h89.12c4.418,0,8-3.582,8-8
		S275.494,185.79,271.076,185.79z"/>
</g>
<path style="fill:#FFFFFF;" d="M247.796,304.83h-28.16l33.2-27.12c3.402-2.85,3.85-7.918,1-11.32s-7.918-3.85-11.32-1l-50.4,41.52
	c-3.446,2.765-3.999,7.8-1.234,11.246c1.526,1.902,3.836,3.004,6.274,2.994h29.36l-34.64,30.4c-2.855,3.372-2.435,8.42,0.937,11.275
	c2.755,2.332,6.73,2.531,9.703,0.485l50.64-44.48c3.314-2.922,3.631-7.978,0.709-11.292c-1.516-1.719-3.697-2.705-5.989-2.708
	L247.796,304.83z"/>
<g>
	<path style="fill:#58171D;" d="M138.516,390.19c-11.797,0-21.36,9.563-21.36,21.36c0,11.797,9.563,21.36,21.36,21.36
		s21.36-9.563,21.36-21.36C159.876,399.753,150.313,390.19,138.516,390.19L138.516,390.19z M138.516,416.91
		c-2.96,0-5.36-2.4-5.36-5.36c0-2.96,2.4-5.36,5.36-5.36s5.36,2.4,5.36,5.36l0,0C143.876,414.51,141.476,416.91,138.516,416.91z"/>
	<path style="fill:#58171D;" d="M226.516,390.19c-11.797,0-21.36,9.563-21.36,21.36s9.563,21.36,21.36,21.36
		c11.797,0,21.36-9.563,21.36-21.36l0,0C247.876,399.753,238.313,390.19,226.516,390.19L226.516,390.19z M226.516,416.91
		c-2.96,0-5.36-2.4-5.36-5.36c0-2.96,2.4-5.36,5.36-5.36c2.96,0,5.36,2.4,5.36,5.36v0C231.876,414.51,229.476,416.91,226.516,416.91
		L226.516,416.91z"/>
	<path style="fill:#58171D;" d="M293.076,411.55c0,11.797,9.563,21.36,21.36,21.36c11.797,0,21.36-9.563,21.36-21.36
		c0-11.766-9.515-21.316-21.28-21.36c-11.797-0.044-21.396,9.483-21.44,21.28C293.076,411.496,293.076,411.523,293.076,411.55z
		 M319.796,411.55c0,2.96-2.4,5.36-5.36,5.36s-5.36-2.4-5.36-5.36s2.4-5.36,5.36-5.36h0
		C317.396,406.19,319.796,408.59,319.796,411.55z"/>
	<path style="fill:#58171D;" d="M403.796,297.87l-6.48-11.68c-26.08-45.84-78.4-43.28-82.8-43.28h-176
		c-4.72,0-56.96-2.88-83.2,43.04l-6.4,11.6c-14.597,2.581-25.188,15.337-25.04,30.16c0,4.418,3.582,8,8,8s8-3.582,8-8
		c0-7.931,6.429-14.36,14.36-14.36s14.36,6.429,14.36,14.36c0,4.418,3.582,8,8,8s8-3.582,8-8
		c-0.013-12.013-7.098-22.892-18.08-27.76l3.2-5.76c11.081-18.788,30.269-31.354,51.92-34v109.12l0,0h-0.4
		c-23.13,1.011-41.06,20.581-40.049,43.711c0.949,21.713,18.336,39.1,40.049,40.049h210.72c23.13,1.011,42.7-16.92,43.711-40.049
		c1.011-23.13-16.92-42.7-40.049-43.711c-1.22-0.053-2.441-0.053-3.661,0h-0.4l0,0V260.19c21.608,2.646,40.776,15.139,51.92,33.84
		l3.28,5.92c-11.045,4.82-18.2,15.709-18.24,27.76c0,4.418,3.582,8,8,8s8-3.582,8-8c0-7.931,6.429-14.36,14.36-14.36
		c7.931,0,14.36,6.429,14.36,14.36c0,4.418,3.582,8,8,8s8-3.582,8-8C429.195,312.88,418.432,300.257,403.796,297.87L403.796,297.87z
		 M137.876,258.91h177.68v110.4l0,0h-177.68V258.91z M331.956,385.63c14.293-0.795,26.524,10.148,27.319,24.441
		c0.795,14.293-10.148,26.524-24.441,27.319c-0.959,0.053-1.92,0.053-2.879,0h-210.88c-14.293-0.795-25.236-13.026-24.441-27.319
		c0.733-13.183,11.258-23.707,24.441-24.441H331.956z"/>
</g>
<g>
</g>
<g>
</g>
<g>
</g>
<g>
</g>
<g>
</g>
<g>
</g>
<g>
</g>
<g>
</g>
<g>
</g>
<g>
</g>
<g>
</g>
<g>
</g>
<g>
</g>
<g>
</g>
<g>
</g>
</svg>
