<?xml version="1.0" encoding="iso-8859-1"?>
<!-- Generator: Adobe Illustrator 19.0.0, SVG Export Plug-In . SVG Version: 6.00 Build 0)  -->
<svg version="1.1" id="Capa_1" xmlns="http://www.w3.org/2000/svg" xmlns:xlink="http://www.w3.org/1999/xlink" x="0px" y="0px"
	 viewBox="0 0 512 512" style="enable-background:new 0 0 512 512;" xml:space="preserve">
<circle style="fill:#FF9AC8;" cx="94.4" cy="92.61" r="85.11"/>
<path style="fill:#E86FA8;" d="M114.396,167.722c-47.005,0-85.111-38.105-85.111-85.111c0-29.306,14.814-55.149,37.36-70.458
	C33.27,23.663,9.285,55.326,9.285,92.611c0,47.005,38.105,85.111,85.111,85.111c17.699,0,34.134-5.406,47.751-14.652
	C133.446,166.07,124.116,167.722,114.396,167.722z"/>
<circle style="fill:#49C3E0;" cx="417.6" cy="412.84" r="85.11"/>
<path style="fill:#00A5C6;" d="M437.604,487.95c-47.005,0-85.111-38.105-85.111-85.111c0-29.306,14.814-55.149,37.36-70.458
	c-33.375,11.51-57.36,43.173-57.36,80.458c0,47.005,38.105,85.111,85.111,85.111c17.699,0,34.134-5.406,47.751-14.652
	C456.654,486.298,447.324,487.95,437.604,487.95z"/>
<path style="fill:#FFCD38;" d="M159.022,334.278H29.771c-11.314,0-20.485,9.172-20.485,20.485v129.251
	c0,11.314,9.172,20.485,20.485,20.485h129.251c11.314,0,20.485-9.172,20.485-20.485v-129.25
	C179.507,343.45,170.335,334.278,159.022,334.278z"/>
<path style="fill:#EBAF03;" d="M179.022,484.5H49.771c-11.314,0-20.485-9.172-20.485-20.485V334.764c0-0.156,0.02-0.307,0.023-0.462
	c-11.098,0.248-20.023,9.304-20.023,20.462v129.251c0,11.314,9.172,20.485,20.485,20.485h129.251
	c11.158,0,20.214-8.925,20.462-20.023C179.329,484.48,179.178,484.5,179.022,484.5z"/>
<path style="fill:#B9A8FF;" d="M495.711,163.714l-69.45-138.9c-3.567-7.134-13.747-7.134-17.314,0l-69.45,138.9
	c-3.218,6.436,1.462,14.007,8.657,14.007h138.9C494.249,177.722,498.929,170.15,495.711,163.714z"/>
<path style="fill:#A394E0;" d="M368.154,167.722c-7.195,0-11.875-7.572-8.657-14.008l65.438-130.875
	c-4.3-5.063-12.792-4.416-15.988,1.976l-69.45,138.9c-3.218,6.436,1.462,14.008,8.657,14.008h138.9c5.726,0,9.844-4.798,9.671-10
	L368.154,167.722L368.154,167.722z"/>
<path d="M64.828,93.486v-6.708c0-4.142-3.358-7.5-7.5-7.5s-7.5,3.358-7.5,7.5v6.708c0,4.142,3.358,7.5,7.5,7.5
	S64.828,97.628,64.828,93.486z"/>
<path d="M138.964,93.486v-6.708c0-4.142-3.358-7.5-7.5-7.5c-4.142,0-7.5,3.358-7.5,7.5v6.708c0,4.142,3.358,7.5,7.5,7.5
	C135.606,100.986,138.964,97.628,138.964,93.486z"/>
<path d="M94.396,105.944c6.545,0,12.7-2.747,16.887-7.537c2.726-3.118,2.408-7.856-0.71-10.583
	c-3.118-2.727-7.857-2.408-10.583,0.71c-1.339,1.531-3.378,2.409-5.594,2.409s-4.255-0.878-5.594-2.41
	c-2.726-3.118-7.464-3.437-10.583-0.711s-3.437,7.464-0.711,10.583C81.696,103.197,87.851,105.944,94.396,105.944z"/>
<path d="M94.396,0C78.388,0,62.584,4.175,48.693,12.073c-3.601,2.047-4.86,6.626-2.813,10.227s6.626,4.86,10.227,2.813
	C67.743,18.497,80.983,15,94.396,15c42.795,0,77.611,34.816,77.611,77.611s-34.816,77.611-77.611,77.611
	s-77.611-34.816-77.611-77.611c0-18.237,6.464-35.965,18.201-49.917c2.666-3.17,2.258-7.901-0.912-10.567
	c-3.17-2.667-7.901-2.258-10.567,0.911C9.5,49.689,1.786,70.847,1.786,92.611c0,51.066,41.545,92.611,92.611,92.611
	s92.611-41.545,92.611-92.611S145.462,0,94.396,0z"/>
<path d="M380.536,421.214c4.142,0,7.5-3.358,7.5-7.5v-6.708c0-4.142-3.358-7.5-7.5-7.5s-7.5,3.358-7.5,7.5v6.708
	C373.036,417.856,376.395,421.214,380.536,421.214z"/>
<path d="M462.172,413.714v-6.708c0-4.142-3.358-7.5-7.5-7.5s-7.5,3.358-7.5,7.5v6.708c0,4.142,3.358,7.5,7.5,7.5
	S462.172,417.856,462.172,413.714z"/>
<path d="M417.604,426.172c6.545,0,12.7-2.747,16.887-7.537c2.727-3.119,2.408-7.856-0.71-10.583
	c-3.118-2.726-7.857-2.409-10.583,0.71c-1.338,1.531-3.377,2.409-5.594,2.409s-4.256-0.878-5.595-2.409
	c-2.725-3.119-7.463-3.437-10.583-0.71c-3.119,2.726-3.437,7.464-0.71,10.583C404.904,423.425,411.059,426.172,417.604,426.172z"/>
<path d="M417.604,320.228c-51.066,0-92.611,41.545-92.611,92.611c0,21.094,6.931,40.979,20.042,57.505
	c2.575,3.245,7.292,3.789,10.537,1.214s3.788-7.292,1.214-10.537c-10.986-13.847-16.793-30.508-16.793-48.182
	c0-42.795,34.816-77.611,77.611-77.611c42.794,0,77.61,34.816,77.61,77.611c0,42.794-34.816,77.61-77.61,77.61
	c-14.244,0-28.168-3.891-40.27-11.251c-3.539-2.152-8.153-1.028-10.305,2.51s-1.029,8.153,2.51,10.305
	c14.45,8.79,31.071,13.436,48.064,13.436c51.065,0,92.61-41.545,92.61-92.61C510.214,361.773,468.671,320.228,417.604,320.228z"/>
<path d="M57.328,406.056c-4.142,0-7.5,3.358-7.5,7.5v6.708c0,4.142,3.358,7.5,7.5,7.5s7.5-3.358,7.5-7.5v-6.708
	C64.828,409.414,61.471,406.056,57.328,406.056z"/>
<path d="M131.464,406.056c-4.142,0-7.5,3.358-7.5,7.5v6.708c0,4.142,3.358,7.5,7.5,7.5c4.142,0,7.5-3.358,7.5-7.5v-6.708
	C138.964,409.414,135.606,406.056,131.464,406.056z"/>
<path d="M110.573,414.603c-3.118-2.727-7.857-2.408-10.583,0.71c-1.339,1.531-3.378,2.409-5.594,2.409s-4.255-0.878-5.594-2.41
	c-2.726-3.118-7.464-3.437-10.583-0.711s-3.437,7.464-0.711,10.583c4.187,4.79,10.343,7.538,16.888,7.538s12.7-2.747,16.887-7.537
	C114.01,422.067,113.692,417.329,110.573,414.603z"/>
<path d="M159.022,326.778H29.771c-15.431,0-27.985,12.554-27.985,27.985v129.251C1.786,499.446,14.34,512,29.771,512h129.251
	c15.431,0,27.985-12.554,27.985-27.985V354.764C187.007,339.333,174.453,326.778,159.022,326.778z M172.007,484.015
	c0,7.16-5.825,12.985-12.985,12.985H29.771c-7.16,0-12.985-5.825-12.985-12.985V354.764c0-7.16,5.825-12.985,12.985-12.985h129.251
	c7.16,0,12.985,5.825,12.985,12.985V484.015z"/>
<path d="M321.798,89.886c-0.382-0.993-0.988-1.901-1.75-2.644l-30.42-30.104c-2.943-2.913-7.692-2.89-10.606,0.056
	c-2.914,2.944-2.889,7.693,0.056,10.606l17.492,17.31h-82.333c-4.142,0-7.5,3.358-7.5,7.5s3.358,7.5,7.5,7.5h82.333
	c0,0-17.488,17.306-17.492,17.31c-2.879,2.849-2.94,7.692-0.056,10.606c2.849,2.879,7.692,2.94,10.606,0.056
	c0,0,30.457-30.14,30.491-30.174C322.217,95.842,322.85,92.618,321.798,89.886z"/>
<path d="M454.672,125.301c-4.142,0-7.5,3.358-7.5,7.5v6.708c0,4.142,3.358,7.5,7.5,7.5s7.5-3.358,7.5-7.5v-6.708
	C462.172,128.659,458.814,125.301,454.672,125.301z"/>
<path d="M380.536,125.301c-4.142,0-7.5,3.358-7.5,7.5v6.708c0,4.142,3.358,7.5,7.5,7.5s7.5-3.358,7.5-7.5v-6.708
	C388.036,128.659,384.678,125.301,380.536,125.301z"/>
<path d="M433.781,133.848c-3.118-2.727-7.857-2.409-10.583,0.71c-1.339,1.531-3.378,2.41-5.594,2.41
	c-2.217,0-4.256-0.878-5.594-2.409c-2.726-3.119-7.464-3.437-10.583-0.711c-3.119,2.727-3.437,7.464-0.711,10.583
	c4.188,4.79,10.342,7.537,16.888,7.537c6.545,0,12.7-2.748,16.887-7.538C437.218,141.312,436.9,136.574,433.781,133.848z"/>
<path d="M501.667,177.074c3.153-5.102,3.434-11.35,0.752-16.714l-69.45-138.9c-2.929-5.857-8.817-9.496-15.365-9.496
	c-6.549,0-12.437,3.639-15.365,9.496l-69.45,138.9c-5.62,11.239,2.845,24.861,15.365,24.861h138.9
	C493.051,185.222,498.514,182.176,501.667,177.074z M346.3,169.188c-0.239-0.386-0.568-1.174-0.096-2.12
	c0,0,69.402-138.803,69.45-138.9c0.786-1.573,3.098-1.6,3.898,0c0,0,69.408,138.816,69.45,138.9c0.702,1.403-0.35,3.153-1.949,3.153
	h-138.9C347.097,170.222,346.539,169.574,346.3,169.188z"/>
<path d="M94.396,315.84c4.142,0,7.5-3.358,7.5-7.5v-82.333l17.309,17.491c2.914,2.944,7.662,2.97,10.607,0.056
	c2.904-2.874,2.924-7.708,0.056-10.607c0,0-29.892-30.206-30.171-30.488c-3.104-3.135-7.627-3.004-10.668,0.068l-30.104,30.42
	c-2.914,2.944-2.889,7.693,0.055,10.606c2.945,2.914,7.693,2.889,10.606-0.056l17.31-17.491v82.333
	C86.896,312.482,90.254,315.84,94.396,315.84z"/>
<path d="M417.604,196.118c-4.142,0-7.5,3.358-7.5,7.5v82.333l-17.31-17.492c-2.914-2.945-7.663-2.969-10.606-0.056
	c-2.944,2.914-2.969,7.662-0.056,10.606c0,0,30.085,30.401,30.102,30.418c1.416,1.431,3.35,2.264,5.368,2.264
	c1.995,0,3.924-0.814,5.333-2.225c0,0,30.119-30.436,30.14-30.458c2.866-2.897,2.834-7.747-0.056-10.606
	c-2.943-2.913-7.692-2.89-10.606,0.056l-17.309,17.491v-82.333C425.104,199.476,421.746,196.118,417.604,196.118z"/>
<g>
</g>
<g>
</g>
<g>
</g>
<g>
</g>
<g>
</g>
<g>
</g>
<g>
</g>
<g>
</g>
<g>
</g>
<g>
</g>
<g>
</g>
<g>
</g>
<g>
</g>
<g>
</g>
<g>
</g>
</svg>
