<?xml version="1.0"?>
<svg xmlns="http://www.w3.org/2000/svg" viewBox="0 0 512 512" width="512" height="512"><g id="Filled_Outline" data-name="Filled Outline"><polygon points="24 24 24 136 120.995 80 24 24" style="fill:#cfd8dc"/><circle cx="256" cy="256" r="120" style="fill:#42a5f5"/><circle cx="432" cy="432" r="56" style="fill:#cfd8dc"/><path d="M260.054,262.977a8,8,0,0,0,3.946-6.9V176H248v75.5l-52.054,30.6,8.108,13.793Z"/><path d="M432,368a64.08,64.08,0,0,0-63.482,56H112a80,80,0,0,1,0-160h16.257C132.4,330.866,188.108,384,256,384s123.6-53.134,127.743-120H400a96,96,0,0,0,0-192H123.139L28,17.072A8,8,0,0,0,16,24V136a8,8,0,0,0,12,6.928L123.139,88H400a80,80,0,0,1,0,160H383.743C379.6,181.133,323.892,128,256,128S132.4,181.133,128.257,248H112a96,96,0,0,0,0,192H368.518A63.992,63.992,0,1,0,432,368ZM32,122.143V37.856L105,80Zm161.234,41.142,7.838,13.576,13.856-8-7.85-13.6A111.151,111.151,0,0,1,248,144.289V160h16V144.289a111.151,111.151,0,0,1,40.922,10.976l-7.85,13.6,13.856,8,7.838-13.576a112.915,112.915,0,0,1,29.948,29.949l-13.575,7.838,8,13.856,13.6-7.85A111.151,111.151,0,0,1,367.711,248H352v16h15.711a111.156,111.156,0,0,1-10.976,40.922l-13.6-7.85-8,13.856,13.576,7.838a112.934,112.934,0,0,1-29.949,29.949l-7.838-13.576-13.856,8,7.85,13.6A111.151,111.151,0,0,1,264,367.711V352H248v15.711a111.151,111.151,0,0,1-40.922-10.976l7.85-13.6-13.856-8-7.838,13.576a112.934,112.934,0,0,1-29.949-29.949l13.576-7.838-8-13.856-13.6,7.85A111.156,111.156,0,0,1,144.289,264H160V248H144.289a111.151,111.151,0,0,1,10.976-40.922l13.6,7.85,8-13.856-13.575-7.838A112.915,112.915,0,0,1,193.234,163.285ZM432,480a48,48,0,1,1,48-48A48.053,48.053,0,0,1,432,480Z"/><path d="M423.337,436.023l-9.68-9.68-11.314,11.314,16,16A8,8,0,0,0,424,456c.146,0,.3,0,.442-.013a8,8,0,0,0,5.805-2.99l32-40L449.753,403Z"/></g></svg>
